<svg width="245" height="46" viewBox="0 0 245 46" fill="none" xmlns="http://www.w3.org/2000/svg">
<path d="M25.302 28.778C25.302 20.6 28.956 13.118 29.942 5.114C30 4.998 30.058 4.94 30.058 4.882C30.058 4.302 28.956 4.128 28.492 4.128C27.39 4.128 26.056 4.824 25.708 5.926L25.244 8.246L24.258 13.872C23.678 16.888 22.75 19.788 21.416 22.572C19.038 18.686 16.95 14.336 16.95 9.696C16.95 8.072 18.516 6.39 18.516 5.056C18.516 4.302 18.052 3.954 17.356 3.954C16.718 3.954 16.08 4.07 15.384 4.07C14.978 4.07 14.514 3.374 14.34 3.026C13.992 2.33 13.818 1.866 12.89 1.866C11.614 1.866 10.976 2.736 10.976 3.896C10.976 5.81 12.194 7.492 12.194 9.348C12.194 9.754 12.136 10.16 12.02 10.566C11.092 13.814 9.932 17.99 7.496 20.426C7.38 20.542 7.264 20.658 7.09 20.658C6.278 20.658 6.278 19.266 6.22 18.686C6.046 17.874 5.872 17.062 5.756 16.192C5.524 14.22 5.524 12.19 5.408 10.218C5.234 7.434 5.002 4.476 4.248 1.75C4.074 1.112 3.378 0.879997 2.74 0.879997C0.594 0.879997 1 2.62 1 4.128C1 10.102 1.87 16.076 2.508 21.992C2.624 23.094 2.566 24.196 2.624 25.24C2.74 26.226 2.856 27.038 3.378 27.908C4.074 28.952 4.248 29.88 4.364 31.098C4.538 32.664 4.712 34.636 6.684 34.636C8.366 34.636 8.598 33.534 8.598 32.142C8.598 31.446 8.482 30.634 8.656 29.938C8.946 29.01 9.352 27.966 9.7 26.98L10.628 24.95C10.744 24.66 11.034 24.312 11.15 24.022V23.906C11.15 23.674 11.034 23.384 11.034 23.094C11.034 22.804 12.078 20.6 12.252 20.078C12.658 19.034 13.18 18.164 13.934 17.294C15.674 18.512 15.674 19.614 16.08 21.528C16.138 21.876 16.254 22.224 16.428 22.572C17.008 23.79 16.95 24.718 17.182 25.994L17.414 27.096C17.472 27.27 17.472 27.444 17.472 27.618C17.704 28.662 18.4 29.416 18.864 30.344C19.038 30.75 19.154 31.098 19.154 31.504C19.154 33.186 17.646 34.636 17.646 36.26C17.646 37.478 18.748 38 19.85 38C23.388 38 21.822 34.172 23.446 33.766C23.678 33.708 24.026 33.708 24.258 33.708C24.896 33.708 25.534 33.766 26.114 33.766C27.042 33.766 27.854 33.534 27.854 32.49C27.854 31.214 25.302 30.344 25.302 28.778ZM38.0606 15.728C37.3646 15.728 37.6546 15.902 37.0166 16.076C34.4646 16.83 34.9286 19.672 34.8126 21.76C34.8126 22.63 34.7546 23.5 34.7546 24.312C34.7546 28.082 35.2186 31.852 35.3926 35.622C35.3926 36.434 35.4506 37.014 36.2046 37.478C36.7266 37.826 37.4806 38 38.1186 38C39.2206 38 39.9746 37.42 40.1486 36.144C40.2066 35.622 40.2066 35.1 40.2066 34.578C40.2066 30.344 39.4526 26.168 39.4526 21.934C39.4526 21.006 39.5106 20.02 39.6266 19.092C39.8586 18.57 40.1486 17.99 40.1486 17.41C40.1486 16.308 39.1046 15.728 38.0606 15.728ZM30.1726 4.476C30.1726 7.202 31.8546 9.87 33.7686 11.726C34.4646 12.422 35.3926 12.828 36.4366 12.828C38.3506 12.828 40.3806 11.146 40.3806 9.174C40.3806 8.826 40.3226 8.536 40.2646 8.246C40.2066 8.13 40.2066 8.072 40.2066 8.014C40.2066 7.492 40.5546 7.086 40.5546 6.506C40.5546 3.432 37.5966 0.879997 34.5806 0.879997C31.6806 0.879997 30.1726 1.112 30.1726 4.476ZM47.7104 6.97C46.2024 6.97 44.8684 7.55 44.8684 9.232C44.8684 9.812 44.9844 10.392 44.9844 10.972C44.9844 11.668 44.8684 12.654 44.8104 13.35C44.4044 15.902 45.1584 23.152 45.0424 21.934C45.2744 24.022 45.2744 23.79 45.2744 26.11C45.2744 29.068 45.1004 32.026 45.2744 34.984C45.3324 36.144 46.2024 36.956 47.3624 36.956C48.0584 36.956 49.2764 36.608 49.4504 35.738C49.6824 34.462 49.6824 32.374 49.6824 31.04C49.6824 27.792 49.2764 24.544 49.2764 21.296C49.2764 19.44 49.3344 17.468 49.6244 15.612C49.7984 14.394 52.3504 13.872 53.3944 13.872C54.4964 13.872 54.8444 14.974 55.1924 15.844C56.4104 18.744 57.0484 21.238 57.0484 24.428C57.0484 27.096 56.7584 29.822 56.7584 32.49C56.7584 34.52 56.2364 38 59.1944 38C60.5864 38 61.7464 37.188 61.7464 35.68C61.7464 34.636 61.3984 33.65 61.2824 32.606C61.2244 31.62 61.2244 30.692 61.2244 29.706C61.2244 27.154 61.5144 24.66 61.5144 22.108C61.5144 17.932 60.3544 14.8 57.7444 11.494C56.9324 10.45 55.8304 10.102 54.5544 10.102C52.9304 10.102 51.3064 10.566 49.6244 10.682C49.6244 9.986 49.9144 9.29 49.9144 8.594C49.9144 7.376 48.8124 6.97 47.7104 6.97ZM88.2837 12.016C88.2837 13.466 89.0957 14.916 89.0957 15.902C89.0957 16.076 89.0377 16.888 88.7477 16.888C86.0217 18.744 82.4837 17.12 79.8737 18.744C79.2357 19.15 78.5977 20.136 78.5977 20.948C78.5977 22.224 80.2217 23.036 81.3817 23.036C83.3537 23.036 85.1517 21.992 87.1237 21.992C87.3557 21.992 87.6457 21.992 87.8197 22.05C88.1097 22.108 88.5157 22.456 88.5157 22.746V35.796C88.5157 37.594 89.3277 38 91.0097 38C93.8517 38 93.9097 36.26 93.9097 33.94C93.9097 31.446 93.5617 28.952 93.5617 26.458C93.5617 25.24 93.6197 23.674 94.1417 22.514C94.3737 22.456 94.5477 22.456 94.7797 22.456C96.8677 22.456 98.8977 23.326 101.044 23.326C102.436 23.326 104.06 22.804 104.64 21.354C104.698 21.238 104.698 21.064 104.698 20.948C104.698 20.368 104.234 19.672 103.712 19.44C101.624 18.57 99.1297 18.628 96.8677 18.396C96.1137 18.338 95.0697 18.338 94.3737 18.048C94.0257 17.932 93.6777 17.468 93.6777 17.12C93.5037 15.148 93.3877 13.06 93.3877 11.03C93.3877 9.986 93.4457 8.884 93.4457 7.782C93.4457 6.332 92.8657 5.172 91.2417 5.172C90.4297 5.172 89.5597 5.578 88.9797 6.158C88.5737 6.564 88.5157 7.086 88.5157 7.666C88.5157 8.014 88.5737 8.362 88.5157 8.71C88.4577 9.812 88.2837 10.914 88.2837 12.016ZM106.619 2.62C106.271 8.826 106.445 14.336 106.503 18.918C106.503 22.282 106.735 25.588 106.967 28.952C107.025 29.3 107.025 29.706 107.025 30.054C107.025 31.968 106.677 33.824 106.677 35.738C106.677 36.55 106.735 37.71 106.967 38.464C107.199 39.16 108.069 39.334 108.765 39.334C109.867 39.334 111.201 38.928 112.071 38.174C112.129 37.072 112.187 36.028 112.187 34.926C112.187 30.576 111.723 26.342 111.723 22.05C111.723 20.078 111.723 17.874 112.071 16.018C112.245 15.148 113.289 14.858 114.043 14.858C114.797 14.858 115.493 15.148 115.957 15.786C116.943 17.12 117.175 19.034 117.407 20.658C117.929 23.558 118.509 26.4 118.509 29.358C118.509 30.112 118.451 30.866 118.393 31.62C118.277 32.954 117.755 34.23 117.755 35.622C117.755 35.912 117.813 36.492 117.929 36.724C118.335 37.71 119.959 37.71 120.829 37.71C121.873 37.71 123.149 36.55 123.265 35.506C123.323 35.1 123.265 34.578 123.323 34.172C123.439 32.954 123.555 31.736 123.555 30.576C123.555 29.3 123.381 28.14 123.381 26.864C123.381 25.124 123.497 23.384 123.265 21.644C122.975 19.382 122.337 17.236 121.641 15.09C121.467 14.51 121.293 13.872 121.061 13.35C120.713 12.422 119.785 11.784 118.915 11.378C117.001 10.566 113.695 11.552 112.593 9.928C112.071 9.232 112.129 7.782 112.129 6.97C112.129 4.94 112.651 0.821998 109.577 0.821998C108.359 0.821998 106.677 1.344 106.619 2.62ZM131.688 15.728C130.992 15.728 131.282 15.902 130.644 16.076C128.092 16.83 128.556 19.672 128.44 21.76C128.44 22.63 128.382 23.5 128.382 24.312C128.382 28.082 128.846 31.852 129.02 35.622C129.02 36.434 129.078 37.014 129.832 37.478C130.354 37.826 131.108 38 131.746 38C132.848 38 133.602 37.42 133.776 36.144C133.834 35.622 133.834 35.1 133.834 34.578C133.834 30.344 133.08 26.168 133.08 21.934C133.08 21.006 133.138 20.02 133.254 19.092C133.486 18.57 133.776 17.99 133.776 17.41C133.776 16.308 132.732 15.728 131.688 15.728ZM123.8 4.476C123.8 7.202 125.482 9.87 127.396 11.726C128.092 12.422 129.02 12.828 130.064 12.828C131.978 12.828 134.008 11.146 134.008 9.174C134.008 8.826 133.95 8.536 133.892 8.246C133.834 8.13 133.834 8.072 133.834 8.014C133.834 7.492 134.182 7.086 134.182 6.506C134.182 3.432 131.224 0.879997 128.208 0.879997C125.308 0.879997 123.8 1.112 123.8 4.476ZM141.337 16.54C141.337 20.484 143.077 21.934 146.499 23.5C148.761 24.544 150.791 27.676 150.791 30.112C150.791 32.78 148.181 35.796 144.585 33.302L144.005 32.606C142.961 31.33 142.497 30.112 142.323 28.488C142.033 26.748 139.945 26.922 138.959 26.922C138.437 26.922 137.277 28.488 137.277 29.184C137.277 30.112 137.973 30.808 138.089 31.736C138.321 33.998 139.597 35.854 141.743 36.724C143.541 37.42 145.571 37.942 147.485 37.942C151.777 37.942 155.489 35.332 155.489 30.808C155.489 28.14 154.271 25.124 152.821 22.92C151.197 20.368 147.949 19.962 146.731 17.526C146.499 17.178 146.441 16.83 146.441 16.424C146.441 15.09 147.369 13.408 148.877 13.408C150.559 13.408 152.125 15.728 153.459 15.728C154.619 15.728 155.895 14.684 155.895 13.466C155.895 12.074 153.807 11.146 152.821 10.45C151.545 9.522 150.095 8.768 148.471 8.768C148.065 8.768 147.659 8.768 147.253 8.942C146.093 9.29 144.063 9.928 143.251 10.856C141.975 12.306 141.337 14.626 141.337 16.54ZM188.332 38C190.478 38 190.942 36.144 190.942 34.404C190.942 34.056 190.884 33.65 190.884 33.302C189.724 22.862 189.028 12.364 188.158 1.866C187.056 1.286 185.78 0.879997 184.504 0.879997C183.634 0.879997 182.706 1.112 182.184 1.982C179.458 6.97 178.124 12.77 176.326 18.106C175.108 21.702 172.904 25.356 172.904 29.184V29.88C173.02 30.75 174.238 31.04 174.992 31.04C175.862 31.04 176.268 30.808 176.616 29.938C177.37 27.908 178.124 25.472 178.646 23.384C178.82 22.63 178.994 21.76 179.284 21.122C179.516 20.6 180.27 20.078 180.792 20.078C181.314 20.078 181.72 20.426 182.3 20.426C182.88 20.426 183.402 20.31 183.982 20.31C184.794 20.31 185.432 20.832 185.548 21.76C186.07 25.182 186.244 25.24 186.418 28.72L186.592 32.374C186.65 33.476 186.534 34.868 186.534 35.97C186.534 37.362 186.766 38 188.332 38ZM185.026 11.32C185.026 12.48 185.084 13.582 185.084 14.684C185.084 16.134 184.562 16.772 183.228 16.772C182.242 16.772 181.372 16.598 181.372 15.438C181.372 14.684 181.72 13.93 182.01 13.292C182.474 12.422 182.648 10.334 183.982 10.334C184.678 10.334 184.678 10.972 185.026 11.32ZM193.253 34.694C193.253 36.724 192.963 38.754 192.963 40.784C192.963 42.06 193.137 43.278 193.427 44.496C193.659 45.25 194.297 45.482 194.993 45.482C196.965 45.482 197.429 43.974 197.429 42.35C197.429 41.306 197.255 40.262 197.255 39.16C197.255 38.638 197.313 38.058 197.487 37.478C197.719 37.13 197.429 37.014 197.893 36.84C204.157 34.694 208.275 30.228 208.275 23.326C208.275 19.846 207.289 15.438 204.099 13.582C203.287 13.06 200.909 12.132 200.039 12.132C199.401 12.132 198.763 12.248 198.125 12.248C197.429 12.248 196.501 12.016 196.501 11.204C196.501 10.682 196.675 10.276 196.675 9.812C196.675 8.768 195.225 8.362 194.413 8.362C193.717 8.362 192.963 8.594 192.847 9.348C192.615 10.856 192.615 12.538 192.615 14.104C192.615 19.672 193.485 25.24 193.485 30.808C193.485 31.214 193.485 31.62 193.427 32.026C193.427 32.548 193.253 33.012 193.253 33.534V34.694ZM197.487 30.054C197.487 25.878 196.849 21.702 196.849 17.526V15.96C197.313 15.728 197.777 15.67 198.241 15.67C200.271 15.67 202.765 17.584 203.519 19.382C203.983 20.6 204.273 22.108 204.273 23.384C204.273 24.022 203.519 27.154 203.287 27.85C203.055 28.546 202.185 29.88 201.663 30.46C201.489 30.692 201.199 30.866 201.025 31.098C200.271 31.91 199.517 32.896 198.357 32.896C197.545 32.896 197.371 32.548 197.371 31.736C197.371 31.156 197.487 30.634 197.487 30.054ZM211.988 25.472C211.988 29.358 213.496 33.94 217.498 35.97C219.122 36.782 220.746 37.71 223.008 37.884C224.98 38.058 226.894 36.782 228.46 35.738C230.316 34.52 231.012 32.316 231.012 30.228C231.012 28.488 230.838 26.98 228.692 26.98C228.46 26.98 228.112 26.98 227.88 27.096C227.416 27.27 226.256 27.966 226.256 28.488C226.256 29.068 226.372 29.59 226.372 30.112C226.372 30.402 226.314 30.634 226.256 30.924C226.082 32.432 224.516 33.418 223.066 33.418C221.5 33.418 220.05 32.142 218.832 31.33C217.498 30.46 217.15 29.01 216.976 27.502C216.86 26.284 216.512 25.008 216.512 23.79C216.512 22.978 216.686 22.108 217.208 21.47C217.614 21.412 218.02 21.412 218.426 21.412C221.036 21.412 223.588 22.05 226.198 22.05C227.184 22.05 229.33 22.108 230.258 21.76C231.128 21.47 231.65 20.426 231.65 19.498C231.65 19.324 231.65 19.092 231.592 18.918C231.302 18.222 229.852 18.106 229.504 17.642C229.156 17.178 229.446 15.322 229.272 14.684C228.46 12.016 227.706 11.088 226.198 9.464C225.792 9 224.632 8.768 224.052 8.536C223.24 8.246 222.312 8.13 221.442 8.13C215.7 8.13 213.206 15.554 212.568 20.252C212.336 21.992 211.988 23.732 211.988 25.472ZM218.716 16.424C218.716 15.38 220.224 12.364 221.384 12.364C221.616 12.364 223.008 12.422 223.124 12.596C224.168 13.524 224.342 12.654 225.154 17.004C225.154 17.178 224.342 17.642 224.11 17.642C222.486 17.642 220.92 17.062 219.296 17.062C219.064 17.062 218.716 16.656 218.716 16.424ZM232.49 34.81C232.49 34.81 232.664 35.39 232.722 35.448C233.186 36.666 233.824 37.594 235.158 37.942C235.332 38 235.506 38 235.68 38C236.202 38 237.13 37.768 237.42 37.246C238.174 35.97 239.276 33.882 239.276 32.374C239.276 31.33 238.87 30.75 238.116 30.112C237.478 29.532 236.84 29.068 235.912 29.068C233.65 29.068 233.824 32.374 233.36 33.882C233.128 34.172 232.49 34.346 232.49 34.81ZM242.35 0.879997C241.19 0.879997 239.972 1.46 239.45 2.562C238.696 4.07 238.986 5.926 238.29 7.492C236.608 11.61 236.376 15.786 235.158 20.02C235.042 20.6 234.868 21.18 234.868 21.76C234.868 23.384 236.492 23.906 237.826 23.906C238.58 23.906 239.044 23.79 239.682 23.384C241.944 21.992 241.074 19.556 241.422 17.352C242.292 12.48 244.38 7.84 244.38 2.91C244.38 2.504 244.438 2.04 244.38 1.634C244.264 1.054 242.814 0.879997 242.35 0.879997Z" fill="#F59E0B"/>
</svg>
